<svg version="1.1" xmlns="http://www.w3.org/2000/svg" viewBox="0 0 250 250"><desc>Created with Snap</desc><defs></defs><g transform="matrix(0.1521,0,0,0.1521,43.9181,177.4066)"><rect x="-288.7" y="-1033.2" width="1643.4" height="1377.4" fill="#fe938c" style=""></rect><g><g transform="matrix(0.5,0,0,-0.5,0,0)"><path d="M985 1085Q985 1161 982 1215Q979 1269 975 1305Q971 1342 968 1364Q965 1387 965 1399Q965 1414 980 1424Q996 1434 1018 1434Q1069 1434 1093 1413Q1117 1393 1126 1348Q1130 1329 1133 1307Q1137 1286 1139 1258Q1142 1230 1143 1194Q1145 1159 1145 1112Q1145 935 1126 779Q1107 624 1074 494Q1041 364 995 261Q950 159 898 88Q846 18 788 -20Q731 -57 674 -57Q652 -57 627 -48Q603 -39 582 -19Q562 2 548 36Q535 70 535 121L535 1274Q466 1265 404 1235Q343 1205 297 1153Q252 1101 225 1027Q199 953 199 856Q199 794 212 744Q225 695 243 660Q261 626 279 607Q297 588 307 588Q316 588 324 592Q332 596 340 596Q356 596 356 571Q356 539 341 509Q327 480 305 461Q283 443 257 438Q231 433 209 449Q182 467 151 504Q121 541 95 593Q70 646 53 712Q37 778 37 856Q37 964 63 1049Q89 1135 132 1199Q176 1263 234 1308Q292 1353 356 1381Q420 1409 486 1421Q552 1434 612 1434Q628 1434 643 1427Q658 1421 669 1409Q680 1398 687 1382Q694 1366 694 1348L694 133Q694 113 700 108Q707 104 713 104Q728 104 754 130Q780 157 810 211Q841 265 872 346Q903 427 928 536Q953 645 969 782Q985 919 985 1085ZM1620 -74Q1555 -74 1512 -60Q1469 -45 1444 -27Q1419 -9 1409 7Q1399 24 1399 29Q1399 47 1407 67Q1415 88 1427 105Q1439 123 1453 135Q1467 147 1478 147Q1492 147 1501 129Q1503 127 1511 119Q1519 111 1533 102Q1548 94 1569 87Q1591 80 1620 80Q1683 80 1723 118Q1763 157 1763 223Q1763 269 1741 305Q1720 341 1685 372Q1650 403 1605 432Q1560 462 1513 494Q1466 526 1421 563Q1376 600 1341 648Q1306 696 1284 756Q1263 817 1263 895Q1263 962 1286 1030Q1309 1098 1349 1159Q1390 1221 1445 1274Q1500 1328 1564 1367Q1628 1407 1697 1429Q1767 1452 1837 1452Q1897 1452 1945 1433Q1993 1414 2026 1379Q2059 1345 2077 1296Q2095 1248 2095 1188Q2095 1131 2075 1076Q2055 1021 2022 972Q1989 923 1947 881Q1906 840 1862 809Q1819 779 1778 762Q1737 745 1706 745Q1679 745 1657 757Q1636 770 1621 788Q1607 807 1599 827Q1591 848 1591 864Q1591 877 1594 881Q1598 885 1604 884Q1611 884 1621 881Q1631 879 1644 879Q1686 879 1737 908Q1788 937 1833 982Q1878 1027 1908 1081Q1939 1135 1939 1186Q1939 1238 1913 1268Q1888 1298 1827 1298Q1789 1298 1744 1283Q1700 1269 1655 1243Q1610 1217 1568 1180Q1526 1143 1494 1098Q1462 1054 1442 1002Q1423 951 1423 895Q1423 836 1444 789Q1466 743 1501 705Q1537 667 1582 635Q1627 603 1674 571Q1721 540 1766 506Q1811 473 1846 432Q1882 392 1903 342Q1925 293 1925 229Q1925 167 1901 111Q1878 56 1837 15Q1796 -26 1740 -50Q1684 -74 1620 -74Z" fill="#292929" style=""></path></g></g></g></svg>